<?xml version="1.0" encoding="utf-8"?>
<!-- Generator: Adobe Illustrator 14.0.0, SVG Export Plug-In . SVG Version: 6.00 Build 43363)  -->
<!DOCTYPE svg PUBLIC "-//W3C//DTD SVG 1.1//EN" "http://www.w3.org/Graphics/SVG/1.1/DTD/svg11.dtd">
<svg version="1.1" id="Capa_1" xmlns="http://www.w3.org/2000/svg" xmlns:xlink="http://www.w3.org/1999/xlink" x="0px" y="0px"
	 width="95px" height="70.865px" viewBox="0 0 95 70.865" enable-background="new 0 0 95 70.865" xml:space="preserve">
<path d="M12.759,68.988h69.548l12.308-32.915c0,0,2.289-6.867-4.294-6.867c-6.583,0-57.241,0-57.241,0s-5.724,0.571-8.586,8.204
	C21.632,45.042,12.759,68.988,12.759,68.988z"/>
<path d="M82.689,24.054H33.461c0,0-9.541-1.717-13.547,9.541c-4.007,11.257-11.64,30.337-11.64,30.337s-5.354,0.381-5.354-4.389
	c0-4.771,0-48.083,0-48.083s1.919-4.007,4.59-4.387c2.671-0.383,24.423,0,24.423,0l5.151,11.066h41.787
	C78.873,18.14,84.216,19.855,82.689,24.054z"/>
<path d="M77.728,16.23c0,0,0.574-4.389-4.006-4.389s-37.207,0-37.207,0l2.29,4.389H77.728z"/>
<path d="M72.767,9.096c0,0,0.573-4.387-4.006-4.387c-4.58,0-35.313,0-35.313,0l2.29,4.387H72.767z"/>
<path stroke="#FFFFFF" d="M93.545,65.004L88.846,60.3c-0.897-0.897-2.164-1.181-3.31-0.879l-1.281-1.28
	c5.23-6.449,4.85-15.964-1.147-21.963c-3.104-3.104-7.231-4.814-11.622-4.814s-8.521,1.711-11.624,4.814
	c-3.105,3.105-4.816,7.231-4.816,11.619c0,4.392,1.711,8.518,4.816,11.621c3.102,3.107,7.234,4.819,11.624,4.819
	c3.809,0,7.422-1.293,10.341-3.669l1.282,1.283c-0.302,1.143-0.02,2.407,0.875,3.304l4.699,4.702c0.67,0.674,1.55,1.008,2.43,1.008
	c0.879,0,1.759-0.334,2.429-1.006C94.883,68.521,94.883,66.346,93.545,65.004z"/>
<path fill="#FFFFFF" d="M80.682,56.987c0,0-0.002,0-0.002,0.003c0,0,0,0.002-0.003,0.002c-2.459,2.455-5.72,3.81-9.191,3.81
	c-3.473-0.001-6.739-1.354-9.194-3.812c-2.458-2.456-3.809-5.72-3.809-9.192c0-3.471,1.35-6.734,3.809-9.19
	c2.456-2.455,5.72-3.809,9.194-3.809c3.473,0,6.733,1.354,9.194,3.809C85.746,43.675,85.746,51.919,80.682,56.987z"/>
</svg>
