<?xml version="1.0" encoding="utf-8"?>
<!-- Generator: Adobe Illustrator 14.0.0, SVG Export Plug-In . SVG Version: 6.00 Build 43363)  -->
<!DOCTYPE svg PUBLIC "-//W3C//DTD SVG 1.1//EN" "http://www.w3.org/Graphics/SVG/1.1/DTD/svg11.dtd">
<svg version="1.1" id="Capa_1" xmlns="http://www.w3.org/2000/svg" xmlns:xlink="http://www.w3.org/1999/xlink" x="0px" y="0px"
	 width="68px" height="78.73px" viewBox="0 0 68 78.73" enable-background="new 0 0 68 78.73" xml:space="preserve">
<path d="M33.415,47.036c-1.378-1.208-9.741-8.542-9.741-8.542s0,37.009,0,37.765c-5.694,2.398-8.542-3.745-8.542-3.745
	s-2.248,5.094-7.942,3.745c0-2.396,0-31.171,0-31.171s-1.948,2.098-2.697-0.3c0-1.798,2.473-22.629,2.473-22.629h15.212
	c0,0,1.198,12.438,13.787,24.127C37.011,47.336,34.792,48.244,33.415,47.036z"/>
<path d="M7.364,12.867h14.162c0,0-0.149,7.342-7.942,7.342C7.29,19.611,7.364,12.867,7.364,12.867z"/>
<path d="M2.617,10.919h23.754V7.922h-5.395c0,0-2.398-6.293-4.197-5.995c-1.798,0.299-1.498,2.097-2.847,1.647
	c-1.349-0.449-0.3-1.517-1.499-1.658c-3.522,0.009-5.07,6.191-5.07,6.191L2.617,8.146V10.919z"/>
<path d="M37.202,47.035c1.378-1.208,9.741-8.542,9.741-8.542s0,37.009,0,37.765c5.694,2.398,8.542-3.745,8.542-3.745
	s2.248,5.094,7.943,3.745c0-2.396,0-31.171,0-31.171s1.948,2.098,2.697-0.3c0-1.798-2.473-22.629-2.473-22.629H48.441
	c0,0-1.199,12.438-13.788,24.127C33.605,47.335,35.824,48.243,37.202,47.035z"/>
<path d="M63.253,12.866H49.091c0,0,0.149,7.342,7.942,7.342C63.328,19.61,63.253,12.866,63.253,12.866z"/>
<path d="M68,10.918H44.246V7.921h5.396c0,0,2.398-6.293,4.196-5.995c1.799,0.299,1.498,2.097,2.847,1.647
	c1.349-0.449,0.301-1.517,1.5-1.658c3.522,0.009,5.07,6.191,5.07,6.191L68,8.145V10.918z"/>
</svg>
