<?xml version="1.0" encoding="utf-8"?>
<!-- Generator: Adobe Illustrator 14.0.0, SVG Export Plug-In . SVG Version: 6.00 Build 43363)  -->
<!DOCTYPE svg PUBLIC "-//W3C//DTD SVG 1.1//EN" "http://www.w3.org/Graphics/SVG/1.1/DTD/svg11.dtd">
<svg version="1.1" id="Capa_1" xmlns="http://www.w3.org/2000/svg" xmlns:xlink="http://www.w3.org/1999/xlink" x="0px" y="0px"
	 width="147.696px" height="59.42px" viewBox="0 0 147.696 59.42" enable-background="new 0 0 147.696 59.42" xml:space="preserve">
<path d="M134.761,9.558c-0.926-0.275-1.911,0.258-2.186,1.194c-0.272,0.933,0.262,1.911,1.198,2.187
	c2.682,0.786,4.919,2.526,6.283,4.888c1.36,2.358,1.704,5.06,0.954,7.604c-0.747,2.544-2.489,4.637-4.902,5.887
	c-1.043,0.539-1.8,0.813-2.675,0.973c-0.176,0.03-0.289,0.039-0.299,0.039h-1.577c-0.083-0.023-0.148-0.068-0.234-0.079
	c-0.706-0.097-3.291-1.431-4.861-2.966c-2.493-2.31-3.866-5.442-3.866-8.818c0-6.639,5.401-12.038,12.039-12.038
	c0.974,0,1.762-0.788,1.762-1.763c0-0.973-0.788-1.763-1.762-1.763H16.564C7.981,4.901,1,11.883,1,20.465
	c0,8.583,6.981,15.564,15.564,15.564h31.414c0.973,0,1.763-0.79,1.763-1.763s-0.79-1.763-1.763-1.763H16.564
	c-6.638,0-12.039-5.397-12.039-12.039c0-6.639,5.4-12.038,12.039-12.038h108.217c-3.487,2.857-5.711,7.191-5.711,12.038
	c0,4.306,1.821,8.461,4.96,11.371c0.169,0.164,0.358,0.329,0.547,0.491H85.126c-0.975,0-1.763,0.788-1.763,1.762
	c0,0.975,0.788,1.763,1.763,1.763h48.01c0,0,0.003,0,0.014,0c0.072,0,0.375-0.003,0.905-0.096c1.25-0.229,2.31-0.609,3.67-1.309
	c3.281-1.699,5.653-4.548,6.668-8.031c1.022-3.479,0.565-7.159-1.284-10.357C141.289,12.909,138.325,10.599,134.761,9.558z"/>
<path d="M79.408,37.888c1.405-1.504,2.262-3.477,2.492-5.721c1.439-1.74,2.245-3.733,2.334-5.789
	c0.096-2.189-0.637-4.377-2.121-6.349c-0.031-3.129-1.081-5.747-3.043-7.58c-3.04-2.839-8-3.324-13.023-1.309
	c-5.18-1.688-10.098-0.877-12.948,2.178c-1.405,1.505-2.264,3.479-2.496,5.726c-1.439,1.738-2.244,3.734-2.331,5.79
	c-0.119,2.736,1.009,5.386,3.268,7.67c0.285,2.551,1.306,4.706,2.962,6.254c0.417,0.392,0.875,0.726,1.355,1.027l-5.543,13.708
	l7.659-2.472l4.202,5.686l1.68-15.61c1.049-0.174,2.117-0.449,3.196-0.851c1.157,0.336,2.284,0.508,3.395,0.603l1.611,14.953
	l4.203-5.684l7.66,2.472l-5.566-13.757C78.727,38.544,79.081,38.236,79.408,37.888z"/>
</svg>
