<?xml version="1.0" encoding="utf-8"?>
<!-- Generator: Adobe Illustrator 14.0.0, SVG Export Plug-In . SVG Version: 6.00 Build 43363)  -->
<!DOCTYPE svg PUBLIC "-//W3C//DTD SVG 1.1//EN" "http://www.w3.org/Graphics/SVG/1.1/DTD/svg11.dtd">
<svg version="1.1" id="Capa_1" xmlns="http://www.w3.org/2000/svg" xmlns:xlink="http://www.w3.org/1999/xlink" x="0px" y="0px"
	 width="148.445px" height="141.73px" viewBox="0 0 148.445 141.73" enable-background="new 0 0 148.445 141.73"
	 xml:space="preserve">
<g>
	<g>
		<path d="M62.629,111.57c-0.569,0.422-1.236,0.722-1.997,0.722H46.678c-1.892,0-3.42-1.529-3.42-3.416V94.922
			c0-1.887,1.528-3.416,3.42-3.416h11.784c0.172-3.118,0.67-6.173,1.541-9.104H46.678c-1.892,0-3.42-1.53-3.42-3.419V65.03
			c0-1.89,1.528-3.419,3.42-3.419h13.955c1.882,0,3.408,1.529,3.408,3.419v8.332c1.643-2.714,3.583-5.27,5.888-7.571
			c7.465-7.463,17.384-11.575,27.943-11.575c2.66,0,5.28,0.265,7.827,0.779L70.824,24.903c-1.28-1.104-3.184-1.104-4.46,0
			L21.334,63.752c-0.754,0.65-1.19,1.592-1.19,2.588v56.179c0,1.884,1.529,3.412,3.42,3.412h51.47
			c-1.796-1.279-3.522-2.684-5.106-4.272C66.926,118.66,64.503,115.246,62.629,111.57z"/>
		<path d="M141.735,127.935l-9.344-9.353c-1.784-1.785-4.303-2.35-6.582-1.748l-2.547-2.546
			c10.399-12.822,9.643-31.743-2.282-43.671c-6.173-6.172-14.379-9.572-23.108-9.572s-16.944,3.4-23.112,9.572
			c-6.176,6.176-9.578,14.379-9.578,23.104c0,8.73,3.402,16.936,9.578,23.106c6.167,6.18,14.383,9.582,23.112,9.582
			c7.573,0,14.758-2.571,20.562-7.295l2.55,2.552c-0.6,2.271-0.04,4.786,1.741,6.568l9.344,9.35c1.332,1.34,3.082,2.005,4.832,2.005
			c1.748,0,3.498-0.663,4.829-2C144.396,134.927,144.396,130.603,141.735,127.935z M79.589,112.003
			c-4.888-4.885-7.573-11.374-7.573-18.279c0-6.9,2.685-13.391,7.573-18.274c4.884-4.881,11.374-7.571,18.282-7.571
			c6.905,0,13.389,2.691,18.282,7.571c10.073,10.076,10.073,26.47,0.004,36.546c0,0.002-0.004,0.002-0.004,0.007
			c0,0.001,0,0.003-0.006,0.003c-4.891,4.883-11.374,7.575-18.276,7.575C90.966,119.579,84.473,116.886,79.589,112.003z"/>
		<path d="M123.905,65.54c1.286,1.108,2.873,1.651,4.451,1.651c1.919,0,3.829-0.808,5.176-2.376
			c2.461-2.863,2.138-7.175-0.723-9.635L73.043,3.792c-2.559-2.202-6.345-2.202-8.9,0L4.38,55.18
			c-2.866,2.46-3.186,6.771-0.729,9.635c2.464,2.86,6.773,3.178,9.63,0.725l55.312-47.563L123.905,65.54z"/>
	</g>
</g>
</svg>
