<?xml version="1.0" encoding="utf-8"?>
<!-- Generator: Adobe Illustrator 14.0.0, SVG Export Plug-In . SVG Version: 6.00 Build 43363)  -->
<!DOCTYPE svg PUBLIC "-//W3C//DTD SVG 1.1//EN" "http://www.w3.org/Graphics/SVG/1.1/DTD/svg11.dtd">
<svg version="1.1" id="Capa_1" xmlns="http://www.w3.org/2000/svg" xmlns:xlink="http://www.w3.org/1999/xlink" x="0px" y="0px"
	 width="103px" height="106.23px" viewBox="0 0 103 106.23" enable-background="new 0 0 103 106.23" xml:space="preserve">
<polygon points="71.541,76.131 68.002,79.931 64.463,76.131 64.463,17.931 71.541,17.931 "/>
<path d="M72.917,53.115l0.071,23.469l-4.985,4.266l-4.515-4.099l-0.071-23.167c-11.011-7.877-31.255-0.273-31.255-0.273
	S14.128,65.906,3.117,79.271c16.516-3.152,34.605,5.512,29.044,11.017c24.326-5.505,35.84,14.943,35.84,14.943L103,69.839
	c0,0,0,0,0-5.505C101.427,52.536,72.917,53.115,72.917,53.115z M58.564,68.069c0,0-23.505,18.182-23.201,20.646
	c0.787-3.933,26.971-26.298,26.971-26.298L58.564,68.069z"/>
<path d="M28.678,25.372c0,0,16.516-2.329,17.303,5.143c0.787,7.471,0,10.224,0,10.224S23.812,53.335,8.623,50.899
	c-2.556-4.458-3.539-5.245-5.505-10.16c-1.966-4.915,9.831-11.011,15.336-12.977c0-13.37-6.292-14.156-7.865-18.875
	c-1.573-4.719,2.753-6.292,6.685-7.471c3.933-1.18,11.011,1.573,9.438,6.685C25.139,13.212,23.172,22.195,28.678,25.372z"/>
</svg>
