<?xml version="1.0" encoding="utf-8"?>
<!-- Generator: Adobe Illustrator 14.0.0, SVG Export Plug-In . SVG Version: 6.00 Build 43363)  -->
<!DOCTYPE svg PUBLIC "-//W3C//DTD SVG 1.1//EN" "http://www.w3.org/Graphics/SVG/1.1/DTD/svg11.dtd">
<svg version="1.1" id="Capa_1" xmlns="http://www.w3.org/2000/svg" xmlns:xlink="http://www.w3.org/1999/xlink" x="0px" y="0px"
	 width="103px" height="78.73px" viewBox="0 0 103 78.73" enable-background="new 0 0 103 78.73" xml:space="preserve">
<path display="none" d="M20,20.334h21.667c0,0-10.667,42.333-21.667,50C20,58.204,20,20.334,20,20.334z"/>
<path display="none" d="M56.667,20.334h20.667c0,0,0,47.464,0,50C61.667,55.334,56.667,20.334,56.667,20.334z"/>
<path fill="#3B3B3D" d="M43.25,20.334c-2.75,29.25-18.875,55.375-18.875,55.375h49C56.5,50.709,54.5,20.334,54.5,20.334H43.25z
	 M47.625,23.709H49.5v7.25h-1.875V23.709z M47.625,38.084H49.5v10.375h-1.875V38.084z M50.75,72.834H46.5V58.459h4.25V72.834z"/>
<path d="M102,16.584L68.75,4.834l-22.5,11.75L1,2.084l5.25,30.75v29.25L20,70.334c19-25.75,21.667-52.25,21.667-52.25l15,0.5
	c0,0,0.083,1.75,0,1.75c2.667,23.75,16.708,45.521,16.708,45.521l26.875,7.979l-1.5-23.5L102,16.584z M4.833,6.334l16.292,6.25
	l0.708,24.5l-13-3.417L4.833,6.334z M18.415,67.091l-10.249-6.09l1-25l12.667,3.886L18.415,67.091z M20.833,64.834l3.542-24.25
	l8.458,2.25L20.833,64.834z M33.875,40.584l-9.188-2.625L23.7,13.475l16.467,4.359L33.875,40.584z M58.25,18.084
	c0.75-2-10.25-0.75-10.25-0.75l20.25-9.833v29.583H61.5C61.5,37.084,57.5,20.084,58.25,18.084z M62.324,39.887l5.926,0.114
	l0.333,15.333L62.324,39.887z M71.25,9.834v-1.25l28,11.75L96.5,45.949l-25.25-7.99V9.834z M74.5,63.334l-3.25-4.25v-17.75
	L96,48.021l2,23.063L74.5,63.334z"/>
</svg>
