<?xml version="1.0" encoding="utf-8"?>
<!-- Generator: Adobe Illustrator 14.0.0, SVG Export Plug-In . SVG Version: 6.00 Build 43363)  -->
<!DOCTYPE svg PUBLIC "-//W3C//DTD SVG 1.1//EN" "http://www.w3.org/Graphics/SVG/1.1/DTD/svg11.dtd">
<svg version="1.1" id="Capa_1" xmlns="http://www.w3.org/2000/svg" xmlns:xlink="http://www.w3.org/1999/xlink" x="0px" y="0px"
	 width="145.965px" height="141.73px" viewBox="0 0 145.965 141.73" enable-background="new 0 0 145.965 141.73"
	 xml:space="preserve">
<path d="M49.5,0c0,0,80,62.084,93.5,80.567c-13.5,21.327-46.75,60.663-46.75,60.663L0,62.559C0,62.559,42.5,0.948,49.5,0z"/>
<path fill="#FFFFFF" stroke="#000000" d="M14.119,127.999C13.174,115.351,56.464,28.548,99.457,1.396
	C94.971,11.44,74.036,43.682,74.036,43.682s-11.603,5.557-16.719,12.227c10.51-8.075,11.289-3.829,11.289-3.829L55.978,76.967
	c0,0-17.015,6.802-16.104,8.956c10.759-4.212,12.412-2.708,12.412-2.708l-7.051,17.389l-26.274,17.214L14.119,127.999z"/>
</svg>
