<?xml version="1.0" encoding="utf-8"?>
<!-- Generator: Adobe Illustrator 14.0.0, SVG Export Plug-In . SVG Version: 6.00 Build 43363)  -->
<!DOCTYPE svg PUBLIC "-//W3C//DTD SVG 1.1//EN" "http://www.w3.org/Graphics/SVG/1.1/DTD/svg11.dtd">
<svg version="1.1" xmlns="http://www.w3.org/2000/svg" xmlns:xlink="http://www.w3.org/1999/xlink" x="0px" y="0px" width="48px"
	 height="50px" viewBox="0 0 48 50" enable-background="new 0 0 48 50" xml:space="preserve">
<g id="Forma_2_1_" enable-background="new    ">
	<g id="Forma_2">
		<g>
			<path fill-rule="evenodd" clip-rule="evenodd" d="M15.433,17.245c-9.571,0-14.102,3.727-15.433,5.081V50h30.81
				c2.05-0.619,4.887-2.403,4.67-11.316C35.201,27.269,27.126,17.245,15.433,17.245z"/>
		</g>
	</g>
</g>
<g id="Forma_16_1_" enable-background="new    ">
	<g id="Forma_16">
		<g>
			<rect x="-0.3" y="43.3" fill-rule="evenodd" clip-rule="evenodd" fill="#FFFFFF" width="29.6" height="2"/>
		</g>
	</g>
</g>
<g id="Forma_17_1_" enable-background="new    ">
	<g id="Forma_17">
		<g>
			
				<rect x="6.8" y="43.679" transform="matrix(0.9908 -0.1353 0.1353 0.9908 -6.137 1.4769)" fill-rule="evenodd" clip-rule="evenodd" fill="#FFFFFF" width="2" height="4.441"/>
		</g>
	</g>
</g>
<g id="Forma_3_1_" enable-background="new    ">
	<g id="Forma_3">
		<g>
			<path fill-rule="evenodd" clip-rule="evenodd" fill="#FFFFFF" d="M1.929,21.7c-0.692,0-1.253,0.561-1.253,1.253v15.034
				c0,0.692,0.561,1.253,1.253,1.253s1.253-0.561,1.253-1.253V22.953C3.182,22.261,2.621,21.7,1.929,21.7z"/>
		</g>
	</g>
</g>
<g id="Forma_4_1_" enable-background="new    ">
	<g id="Forma_4">
		<g>
			<path fill-rule="evenodd" clip-rule="evenodd" fill="#FFFFFF" d="M3.739,28.104H1.79c-0.461,0-0.835,0.374-0.835,0.835
				c0,0.462,0.374,0.836,0.835,0.836h1.949c0.461,0,0.835-0.374,0.835-0.836C4.574,28.478,4.2,28.104,3.739,28.104z"/>
		</g>
	</g>
</g>
<g id="Forma_5_1_" enable-background="new    ">
	<g id="Forma_5">
		<g>
			<path fill-rule="evenodd" clip-rule="evenodd" fill="#FFFFFF" d="M5.41,37.014H2.625c-0.769,0-1.393,0.623-1.393,1.392
				s0.624,1.393,1.393,1.393H5.41c0.769,0,1.392-0.624,1.392-1.393S6.178,37.014,5.41,37.014z"/>
		</g>
	</g>
</g>
<g id="Forma_6_1_" enable-background="new    ">
	<g id="Forma_6">
		<g>
			<path fill-rule="evenodd" clip-rule="evenodd" fill="#FFFFFF" d="M11.117,26.154H8.611c-0.538,0-0.975,0.437-0.975,0.975
				s0.437,0.975,0.975,0.975h2.506c0.538,0,0.975-0.437,0.975-0.975S11.655,26.154,11.117,26.154z"/>
		</g>
	</g>
</g>
<g id="Forma_7_1_" enable-background="new    ">
	<g id="Forma_7">
		<g>
			<path fill-rule="evenodd" clip-rule="evenodd" fill="#FFFFFF" d="M10.143,26.99c-0.615,0-1.113,0.498-1.113,1.113v10.023
				c0,0.615,0.499,1.113,1.113,1.113c0.615,0,1.114-0.498,1.114-1.113V28.104C11.256,27.488,10.758,26.99,10.143,26.99z"/>
		</g>
	</g>
</g>
<g id="Forma_8_1_" enable-background="new    ">
	<g id="Forma_8">
		<g>
			<path fill-rule="evenodd" clip-rule="evenodd" fill="#FFFFFF" d="M12.927,37.849h-2.785c-0.461,0-0.835,0.374-0.835,0.835
				c0,0.462,0.374,0.836,0.835,0.836h2.785c0.461,0,0.835-0.374,0.835-0.836C13.762,38.223,13.388,37.849,12.927,37.849z"/>
		</g>
	</g>
</g>
<g id="Forma_9_1_" enable-background="new    ">
	<g id="Forma_9">
		<g>
			<path fill-rule="evenodd" clip-rule="evenodd" fill="#FFFFFF" d="M14.598,30.331c-0.308,0-0.557,0.249-0.557,0.557v7.239
				c0,0.308,0.25,0.557,0.557,0.557s0.557-0.249,0.557-0.557v-7.239C15.154,30.58,14.905,30.331,14.598,30.331z"/>
		</g>
	</g>
</g>
<g id="Forma_10_1_" enable-background="new    ">
	<g id="Forma_10">
		<g>
			<path fill-rule="evenodd" clip-rule="evenodd" fill="#FFFFFF" d="M19.191,29.496h-4.176c-0.538,0-0.975,0.436-0.975,0.975
				c0,0.538,0.437,0.974,0.975,0.974h4.176c0.539,0,0.975-0.436,0.975-0.974C20.166,29.932,19.73,29.496,19.191,29.496z"/>
		</g>
	</g>
</g>
<g id="Forma_11_1_" enable-background="new    ">
	<g id="Forma_11">
		<g>
			
				<rect x="19.052" y="29.858" transform="matrix(0.6096 -0.7927 0.7927 0.6096 -17.497 28.7539)" fill-rule="evenodd" clip-rule="evenodd" fill="#FFFFFF" width="2.784" height="4.566"/>
		</g>
	</g>
</g>
<g id="Forma_12_1_" enable-background="new    ">
	<g id="Forma_12">
		<g>
			
				<rect x="21.141" y="33.049" transform="matrix(0.9345 -0.356 0.356 0.9345 -11.4041 10.3932)" fill-rule="evenodd" clip-rule="evenodd" fill="#FFFFFF" width="2.784" height="6.257"/>
		</g>
	</g>
</g>
<g id="Forma_13_1_" enable-background="new    ">
	<g id="Forma_13">
		<g>
			
				<rect x="22.807" y="37.013" transform="matrix(0.9985 -0.0554 0.0554 0.9985 -2.0906 1.4629)" fill-rule="evenodd" clip-rule="evenodd" fill="#FFFFFF" width="5.019" height="2.785"/>
		</g>
	</g>
</g>
<g id="Forma_14_1_" enable-background="new    ">
	<g id="Forma_14">
		<g>
			
				<rect x="20.86" y="31.166" transform="matrix(0.0232 -0.9997 0.9997 0.0232 -6.3245 58.6442)" fill-rule="evenodd" clip-rule="evenodd" fill="#FFFFFF" width="11.976" height="2.784"/>
		</g>
	</g>
</g>
<g id="Forma_15_1_" enable-background="new    ">
	<g id="Forma_15">
		<g>
			
				<rect x="26.138" y="25.737" transform="matrix(0.9945 -0.1048 0.1048 0.9945 -2.6852 3.1682)" fill-rule="evenodd" clip-rule="evenodd" fill="#FFFFFF" width="5.319" height="2.784"/>
		</g>
	</g>
</g>
<g id="Forma_1_1_" enable-background="new    ">
	<g id="Forma_1">
		<g>
			<path fill-rule="evenodd" clip-rule="evenodd" d="M29.912-0.018L19.888,10.006V5.551h-4.176c0,0,0,2.228,0,8.91
				c19.489,0,23.388,15.87,23.388,24.223h5.847V17.802h3.063L29.912-0.018z"/>
		</g>
	</g>
</g>
</svg>
