<?xml version="1.0" encoding="utf-8"?>
<!-- Generator: Adobe Illustrator 14.0.0, SVG Export Plug-In . SVG Version: 6.00 Build 43363)  -->
<!DOCTYPE svg PUBLIC "-//W3C//DTD SVG 1.1//EN" "http://www.w3.org/Graphics/SVG/1.1/DTD/svg11.dtd">
<svg version="1.1" xmlns="http://www.w3.org/2000/svg" xmlns:xlink="http://www.w3.org/1999/xlink" x="0px" y="0px" width="300px"
	 height="127px" viewBox="0 0 300 127" enable-background="new 0 0 300 127" xml:space="preserve">
<g id="Forma_1_1_" enable-background="new    ">
	<g id="Forma_1">
		<g>
			<path fill-rule="evenodd" clip-rule="evenodd" fill="#115CAD" d="M217,38.5V17.75h-8.25V38.5H217z M217,5.75h-8.5v8.5h8.5V5.75z
				 M114.25,25.5c0,0,24.75,0,29.25,0s6.25,5.75,0,5.75s-37.5,0-37.5,0v7.25h40.25c0,0,9.25-1,9.25-10s-9.25-10.25-9.25-10.25
				S120.75,18.5,117,18.5s-3.25-4.5,0.25-4.25c0,0,66.75,0,73.5,0S196,16,196,16s0,9.5,0,12s-3,3-3,3h-26V18.5l-7.5-0.25l0.25,19.5
				c0,0,30,0.25,36.75,0.25s7.75-8.5,7.75-8.5s0-5.5,0-13.25S193.5,5.75,193.5,5.75s-75.75,0-77.75,0s-10.25,0.5-10.25,10.5
				S114.25,25.5,114.25,25.5z M227,14.25c11.75,4.5,16,17,16,20.75c-0.25,14.25-35.75,35.75-93.75,33c-58-2.75-76.25-22-75-35.25
				S93.5,12.5,93.5,12.5s2.25-4.75-2.25-4.25S59.75,21,61.25,36s25,36.75,88.25,36.5c63.25-0.25,95.5-19,95.5-39.25
				C245,26.75,235,14.75,227,14.25z"/>
		</g>
	</g>
</g>
<g id="MEXICO">
	
		<text transform="matrix(1.95 0 0 1 105.0522 52.333)" fill="#5B5B5B" font-family="'Clan-MediumSC'" font-size="8.77" letter-spacing="4.615">MEXICO</text>
</g>
<g id="SISTEMAS_Y_DESARROLLOS_INTEGRA_MEXICO_S.A._DE_C.V_1_">
	<text transform="matrix(1.3 0 0 1 15.6733 91.667)" fill="#012B58" font-family="'ClanLF-News'" font-size="14.77">SISTEMAS Y DESARROLLOS</text>
	<text transform="matrix(1.21 0 0 1 15.8306 113.667)" fill="#012B58" font-family="'ClanLF-News'" font-size="14.77">INTEGRA MEXICO S.A. DE C.V</text>
</g>
</svg>
