<?xml version="1.0" encoding="utf-8"?>
<!-- Generator: Adobe Illustrator 14.0.0, SVG Export Plug-In . SVG Version: 6.00 Build 43363)  -->
<!DOCTYPE svg PUBLIC "-//W3C//DTD SVG 1.1//EN" "http://www.w3.org/Graphics/SVG/1.1/DTD/svg11.dtd">
<svg version="1.1" id="Capa_1" xmlns="http://www.w3.org/2000/svg" xmlns:xlink="http://www.w3.org/1999/xlink" x="0px" y="0px"
	 width="32px" height="32px" viewBox="0 0 32 32" enable-background="new 0 0 32 32" xml:space="preserve">
<path fill="#E0A800" d="M26,23h-2v-2h1v-2H6v2h1v2H5c-0.552,0-1-0.448-1-1V12c0-0.967,4-2,11-2c0.371,0,0.699,0,1,0
	c6.938,0,11,1.01,11,2v10C27,22.552,26.553,23,26,23z M23.5,13c-0.828,0-1.5,0.672-1.5,1.5s0.672,1.5,1.5,1.5s1.5-0.672,1.5-1.5
	S24.328,13,23.5,13z M8,4c0-0.553,0.448-1,1-1h13c0.554,0,1,0.447,1,1v5H8V4z M23,29c0,0.552-0.446,1-1,1H9c-0.552,0-1-0.448-1-1v-9
	h15V29z M21,21H10v1h11V21z M21,23H10v1h11V23z M21,25H10v1h11V25z M21,27H10v1h11V27z"/>
</svg>
